<?xml version="1.0" encoding="utf-8"?>
<!-- Generator: Adobe Illustrator 27.0.0, SVG Export Plug-In . SVG Version: 6.00 Build 0)  -->
<svg version="1.1" id="Layer_1" xmlns="http://www.w3.org/2000/svg" xmlns:xlink="http://www.w3.org/1999/xlink" x="0px" y="0px"
	 viewBox="0 0 434.91 319.08" xml:space="preserve">
<style type="text/css">
	.st0{fill:#0076B0;}
	.st1{fill:#6BB9DC;}
	.st2{fill:#A1DAF8;}
	.st3{fill:#0097D9;}
	.st4{fill:#575756;}
	.st5{fill:#FFFFFF;}
	.st6{fill:none;stroke:#FFFFFF;stroke-width:0.8907;stroke-miterlimit:10;}
</style>
<g>
	<rect x="0.44" class="st0" width="103.48" height="195.47"/>
	<rect x="220.46" class="st1" width="103.48" height="195.47"/>
	<rect x="330.48" class="st2" width="103.48" height="195.47"/>
	<rect x="110.45" class="st3" width="103.48" height="195.47"/>
	<g>
		<path class="st4" d="M35.99,259.74c-4.07,4.01-9.32,5.88-15.03,5.88c-14.69,0-20.9-10.11-20.96-20.39
			c-0.05-10.34,6.67-20.85,20.96-20.85c5.37,0,10.45,2.03,14.52,6.04l-4.97,4.8c-2.6-2.55-6.1-3.73-9.54-3.73
			c-9.54,0-13.67,7.12-13.61,13.73c0.05,6.55,3.84,13.39,13.61,13.39c3.45,0,7.34-1.41,9.94-4.01L35.99,259.74z"/>
		<path class="st4" d="M76.65,264.72h-8.87L56.26,251.5h-7.18v13.22h-7.45v-39.6c6.27,0,12.54,0.05,18.81,0.05
			c9.32,0.06,14.24,6.27,14.24,13.11c0,5.42-2.48,10.9-10,12.43l11.98,13.5L76.65,264.72L76.65,264.72z M49.08,232.12v12.65h11.35
			c4.75,0,6.78-3.16,6.78-6.32c0-3.17-2.09-6.33-6.78-6.33L49.08,232.12L49.08,232.12z"/>
		<rect x="81.15" y="225.17" class="st4" width="7.4" height="39.55"/>
		<polygon class="st4" points="108.99,231.95 96.45,231.95 96.45,225.17 128.99,225.17 128.99,231.95 116.44,231.95 116.44,264.72 
			108.99,264.72 		"/>
		<rect x="134.96" y="225.17" class="st4" width="7.4" height="39.55"/>
		<path class="st4" d="M185.62,259.74c-4.07,4.01-9.32,5.88-15.03,5.88c-14.69,0-20.9-10.11-20.96-20.39
			c-0.06-10.34,6.66-20.85,20.96-20.85c5.37,0,10.45,2.03,14.51,6.04l-4.97,4.8c-2.6-2.55-6.1-3.73-9.54-3.73
			c-9.54,0-13.67,7.12-13.61,13.73c0.05,6.55,3.84,13.39,13.61,13.39c3.44,0,7.34-1.41,9.94-4.01L185.62,259.74z"/>
		<path class="st4" d="M217.52,257.26h-20.67l-3.39,7.45h-8.08l17.74-39.55h8.13l17.74,39.55h-8.13L217.52,257.26z M207.19,233.48
			l-7.35,16.83h14.69L207.19,233.48z"/>
		<polygon class="st4" points="241.8,225.17 241.8,257.83 262.13,257.83 262.13,264.72 234.34,264.72 234.34,225.17 		"/>
		<path class="st4" d="M316.46,259.74c-4.07,4.01-9.32,5.88-15.02,5.88c-14.69,0-20.9-10.11-20.96-20.39
			c-0.05-10.34,6.66-20.85,20.96-20.85c5.37,0,10.45,2.03,14.51,6.04l-4.97,4.8c-2.6-2.55-6.1-3.73-9.54-3.73
			c-9.54,0-13.67,7.12-13.61,13.73c0.05,6.55,3.84,13.39,13.61,13.39c3.44,0,7.34-1.41,9.94-4.01L316.46,259.74z"/>
		<path class="st4" d="M348.36,257.26h-20.68l-3.39,7.45h-8.08l17.74-39.55h8.13l17.74,39.55h-8.13L348.36,257.26z M338.02,233.48
			l-7.34,16.83h14.69L338.02,233.48z"/>
		<path class="st4" d="M399.64,264.72h-8.87l-11.52-13.22h-7.17v13.22h-7.46v-39.6c6.27,0,12.54,0.05,18.81,0.05
			c9.32,0.06,14.24,6.27,14.24,13.11c0,5.42-2.49,10.9-10,12.43l11.98,13.5v0.51H399.64z M372.07,232.12v12.65h11.35
			c4.75,0,6.78-3.16,6.78-6.32c0-3.17-2.09-6.33-6.78-6.33L372.07,232.12L372.07,232.12z"/>
		<polygon class="st4" points="433.56,264.72 403.97,264.72 403.97,225.17 433.56,225.17 433.56,232.4 411.37,232.4 411.37,241.5 
			432.78,241.5 432.78,248.45 411.37,248.45 411.37,257.38 433.56,257.38 		"/>
		<rect x="4.96" y="283.33" class="st4" width="4.1" height="35.18"/>
		<polygon class="st4" points="50.13,309.74 28.89,283.62 28.66,283.33 26.41,283.33 26.41,318.5 30.55,318.5 30.55,292.14 
			51.85,318.22 52.08,318.5 54.23,318.5 54.23,283.33 50.13,283.33 		"/>
		<polygon class="st4" points="95.39,309.74 74.14,283.62 73.91,283.33 71.67,283.33 71.67,318.5 75.81,318.5 75.81,292.14 
			97.1,318.22 97.33,318.5 99.49,318.5 99.49,283.33 95.39,283.33 		"/>
		<path class="st4" d="M133.64,282.8c-12.25,0-17.73,9.08-17.73,18.07c0,8.77,5.55,18.21,17.73,18.21
			c12.11,0,17.68-9.39,17.73-18.11c0.03-5.28-1.77-10.01-5.06-13.32C143.15,284.48,138.77,282.8,133.64,282.8 M133.64,315.12
			c-9.31,0-13.59-7.36-13.63-14.21c-0.03-4.21,1.36-7.93,3.89-10.48c2.39-2.41,5.77-3.68,9.75-3.68c9.45,0,13.68,7.11,13.68,14.16
			C147.32,307.76,143.03,315.12,133.64,315.12"/>
		<polygon class="st4" points="179.32,312.78 167.41,283.33 162.94,283.33 177.21,318.11 177.41,318.6 181.24,318.6 195.7,283.33 
			191.24,283.33 		"/>
		<path class="st4" d="M225.42,283.33h-3.84l-15.78,35.18h4.49l3.65-8.26h19.07l3.7,8.26h4.48l-15.57-34.71L225.42,283.33z
			 M215.64,306.29l7.84-17.76l7.84,17.76H215.64z"/>
		<polygon class="st4" points="246.87,287.24 259.03,287.24 259.03,318.5 263.17,318.5 263.17,287.24 275.32,287.24 275.32,283.38 
			246.87,283.38 		"/>
		<rect x="290.17" y="283.33" class="st4" width="4.1" height="35.18"/>
		<path class="st4" d="M328.87,282.8c-12.25,0-17.73,9.08-17.73,18.07c0,8.77,5.55,18.21,17.73,18.21
			c12.11,0,17.68-9.39,17.73-18.11c0.03-5.28-1.77-10.01-5.06-13.32C338.38,284.48,334,282.8,328.87,282.8 M328.87,315.12
			c-9.3,0-13.59-7.36-13.63-14.21c-0.03-4.21,1.36-7.93,3.89-10.48c2.39-2.41,5.76-3.68,9.74-3.68c9.45,0,13.68,7.11,13.68,14.16
			C342.55,307.76,338.27,315.12,328.87,315.12"/>
		<polygon class="st4" points="386.4,309.74 365.16,283.62 364.93,283.33 362.68,283.33 362.68,318.5 366.83,318.5 366.83,292.14 
			388.12,318.22 388.35,318.5 390.51,318.5 390.51,283.33 386.4,283.33 		"/>
		<path class="st4" d="M421.41,298.5l-0.36-0.07c-5.83-1.09-9.64-2.06-9.64-5.57c0-5.88,8.44-6.04,9.4-6.04
			c3.62,0.04,7.29,0.58,9.54,4.19l0.4,0.65l3.47-2.06l-0.45-0.68c-3.38-5.03-7.61-6.06-12.94-6.06c-4.64,0-8.81,1.43-11.16,3.82
			c-1.64,1.68-2.44,3.79-2.4,6.28c0,6.85,6.94,8.21,13.07,9.41c6.32,1.2,10.46,2.31,10.42,6.44c0,5.71-6.95,6.33-9.93,6.33
			c-3.94,0-8.91-1.95-10.79-5.67l-0.35-0.69l-3.69,1.84l0.35,0.7c2.88,5.7,9.36,7.73,14.48,7.73c3.28,0,14.02-0.74,14.08-10.19
			C434.9,301.08,427.74,299.71,421.41,298.5"/>
		<path class="st5" d="M97.47,117.57l0.33-0.26c3.09-2.38,7.75-5.97,4.15-16.31c1.17-5.53,0.39-9.84-2.38-13.16
			c0.85-3.08,1.69-9.45-4.1-13.24c-1.37-3.55-3.51-8.61-10.62-9.3c-1.57-2.38-4.27-5.27-9.66-5.27c-0.93,0-1.92,0.09-2.95,0.26
			c-3.34-3.28-8.03-4.42-13.86-3.34c-1.38-0.78-3.4-1.23-5.52-1.23c-2.65,0-5.18,0.71-7.17,2.02c-4.5-0.43-16.76-0.93-22.69,4.4
			c-3.81,1.07-6.14,2.35-7.41,4.09c-4.66,0.61-8.44,2.94-11.24,6.92c-2.46,3.49-5.22,8.91-1.21,15.91
			c-0.92,2.19-2.34,6.78-0.36,10.92c1.46,3.05,4.45,5.19,8.88,6.38c0.16,0.16,0.32,0.35,0.49,0.53c1.61,1.75,4.29,4.67,9.21,4.67
			c2.48,0,5.31-0.76,8.4-2.25c0.37,0.49,0.72,0.96,1.05,1.42c2.98,4.1,5.55,7.53,15.2,6.57c1.78-0.14,4.83-2,6.13-2.85
			c1.01,0.68,3.22,1.86,6.39,1.86c1.13,0,2.28-0.16,3.44-0.45c-0.51,2.2-0.52,5.24,1.04,7.76c1.19,1.93,3.79,4.23,9.36,4.23
			c11.6,0,18.55,3.35,21.25,10.24l0.66,1.67l1.03-1.47c1.89-2.68,2.26-4.15,2.3-4.35c0.06-0.34,1.31-7.69-3.01-12.17
			c0.25-0.4,0.16-0.91-0.2-1.22C94.83,119.87,95.65,118.98,97.47,117.57 M45.84,59.69l0.36,0.04l0.3-0.21
			c1.71-1.2,3.97-1.86,6.36-1.86c2.29,0,3.98,0.58,4.81,1.12L58,59l0.39-0.08c5.53-1.1,9.85-0.06,12.82,3.08l0.37,0.39l0.52-0.1
			c1.09-0.21,2.13-0.32,3.09-0.32c4.69,0,6.89,2.55,8.28,4.78l0.26,0.42l0.5,0.03c6,0.4,7.87,4.03,9.55,8.4l0.12,0.3l0.28,0.17
			c5.32,3.28,4.15,9.29,3.4,11.72l-0.16,0.53l0.37,0.41c2.65,2.93,3.38,6.9,2.22,12.13l-0.06,0.27l0.09,0.26
			c3.3,9.22-0.42,12.08-3.41,14.39l-0.34,0.26c-3.34,2.59-3.85,3.82-4.22,5.26L92,121.58c-1.06,0.76-3,1.61-6.31,0.77
			c-2.73-0.68-4.6-1.83-5.39-3.32c-0.65-1.23-0.44-2.44-0.15-3.24c0.42-1.16,1.22-2.01,2.24-2.4c1.27-0.5,2.83-0.28,4.5,0.62
			c3.16,1.69,5.25,0.57,6.22-0.25c1.64-1.4,2.47-4.02,1.84-5.88c-0.63-1.85-1.84-3.25-3.5-4.02c-2.36-1.09-5.45-0.9-9.19,0.56
			c-1.99,0.79-3.36-0.29-4-1c-1.42-1.57-1.87-4.07-1.03-5.7c0.75-1.45,2.44-2.09,4.91-1.79c1.27,0.13,2.28,1.22,3.45,2.48
			c0.85,0.92,1.73,1.87,2.85,2.59c1.82,1.16,4.18,1.09,6.18-0.21c1.94-1.25,2.96-3.28,2.66-5.29c-0.31-2.1-2.11-5.02-8.89-6.98
			c-1.13-0.71-1.61-1.65-1.47-2.89c0.19-1.85,1.68-3.52,2.34-3.75c1.53-0.74,2.41-2.09,2.47-3.8c0.08-2.23-1.31-4.68-3.3-5.83
			c-1.7-0.98-3.56-0.94-5.24,0.11c-5.3,3.3-4.53,6.3-3.65,9.78l0.17,0.65c0.54,2.17-0.61,6.18-2.73,7.76
			c-1.24,0.93-2.61,0.92-4.17-0.01c-1.53-0.9-2.28-1.89-2.24-2.93c0.05-1.46,1.59-2.81,2.04-3.09c1.1-0.57,2.03-1.32,2.58-2.43
			c0.7-1.41,1.19-3.92-0.39-7.89c-2.47-6.22-7.15-6.29-7.41-6.22c-2.33-0.06-3.42-0.81-3.66-1.51c-0.17-0.49,0.04-1.06,0.54-1.47
			c0.63-0.52,0.9-1.35,0.73-2.28c-0.25-1.35-1.5-3.04-3.41-3.67c-1.07-0.36-3.25-0.64-5.6,1.55c-2.31,2.14-3.35,4.04-3.18,5.82
			c0.12,1.33,0.91,2.46,2.33,3.38c0.5,0.31,1.23,2.2,0.6,3.67c-0.71,1.7-3.1,2.13-6.72,1.27c-1.58-0.36-2.51-1.14-2.75-2.32
			c-0.27-1.31,0.38-2.61,0.65-2.81c1.3-0.93,0.48-3.65-0.59-5.18c-1.39-1.99-4.02-3.32-7.21-1.14c-3.49,2.41-5.66,5.58-5.79,8.49
			c-0.09,1.94,0.71,3.66,2.29,4.97c2.26,1.87,3.12,4.22,2.8,5.57c-0.14,0.59-0.5,0.94-1.17,1.09c-1.49,0.33-2.91,0.65-3.63,0.09
			c-0.57-0.43-0.88-1.49-0.95-3.12c-0.06-1.75-1.11-3.06-2.87-3.59c-2.31-0.71-5.12,0.14-6.4,1.92c-0.65,0.9-1.45,2.82,0.45,5.5
			c2.1,3.25,3.88,5.41,8.48,5.18c0.52,0,2.02,1.21,2.02,2.38c0.01,1.21-2.15,2-5.52,2.06c-2.18-0.25-4.14,0.43-5.29,1.75
			c-0.88,1.01-1.18,2.32-0.84,3.69c0.4,1.63,0.42,4.66-0.83,5.95c-0.56,0.58-1.34,0.75-2.39,0.54c-1.64-0.34-2.65-1.24-2.83-2.53
			c-0.17-1.15,0.38-2.38,1.27-2.86c1-0.53,1.52-1.63,1.45-3.02c-0.1-1.64-1.05-3.65-2.7-4.31c-0.68-0.27-2.01-0.5-3.45,0.87
			c-1.57,1.49-3.21,1.4-4.14,0.88c-0.95-0.53-1.36-1.56-1.11-2.75c0.35-1.59,1.82-3.19,3.75-4.05c1.79-0.8,3.61-0.82,4.96-0.05
			c1.6,0.91,2.7,0.41,3.21,0.05c1.29-0.92,1.59-2.88,1.31-4.4c-0.31-1.72-1.31-2.96-2.66-3.31c-0.58-0.15-1.35-0.29-2.19-0.44
			c-2.29-0.41-5.75-1.03-6.44-2.44c-0.08-0.16-0.32-0.67,0.26-1.77c1.13-2.12,2.37-3.35,3.4-3.36h0.01c0.9,0,1.59,0.99,1.91,1.58
			c1.22,2.19,4.42,2.72,6.82,2.08c2.09-0.54,3.34-1.84,3.34-3.45v-0.47c-0.01-1.72-0.03-3.49,0.94-4.41
			c0.63-0.6,1.69-0.88,3.25-0.77c3.39,0.21,4.87-1.12,5.53-2.26c0.91-1.55,0.64-3.5-0.09-4.62c-0.07-0.11-0.2-0.13-0.3-0.2
			c2.02-0.23,3.97-0.36,5.46-0.36C42.7,59.43,44.62,59.57,45.84,59.69 M56.16,68.19c-0.92-0.58-1.38-1.21-1.45-1.92
			c-0.1-1.11,0.79-2.57,2.57-4.23c1.23-1.14,2.51-1.51,3.69-1.14c1.14,0.38,1.97,1.41,2.11,2.19c0.03,0.16,0.04,0.36-0.04,0.43
			c-1.13,0.92-1.58,2.33-1.14,3.6c0.27,0.81,1.36,2.71,5.47,2.81c0.15,0,3.66,0.06,5.63,5c1.04,2.62,1.2,4.81,0.45,6.31
			c-0.36,0.75-0.91,1.19-1.46,1.51c-0.19,0.06-0.38,0.13-0.61,0.28c-0.16,0.06-0.33,0.18-0.48,0.22c-1.18,0.34-2.34,0.19-3.25-0.41
			c-1.14-0.75-1.88-2.14-2.12-4.02c-0.47-3.55-2.6-4.6-3.84-4.9c-0.43-0.11-0.87-0.16-1.32-0.16c-1.04,0-2.1,0.27-2.99,0.76
			c0.05-0.09,0.1-0.19,0.14-0.28C58.45,72.05,57.55,69.08,56.16,68.19 M95.73,133.54c0,0.01-0.2,0.77-1.05,2.19
			c-3.05-5.88-9.4-8.93-18.91-9.55c0-0.43-0.23-0.83-0.67-0.94c-2.07-0.52-3.41-1.44-4.1-2.82c-1.54-3.07,0.49-7.89,1.7-10.78
			c0.27-0.62,0.5-1.18,0.66-1.63c0.98-2.69,0.68-7.06-1.51-9.73c-1.13-1.37-3.21-2.92-6.89-2.34c-4.53,0.69-5.65,3.05-5.9,4.4
			c-0.49,2.52,1.12,5.13,2.94,6.21c2.83,1.69,5.52-0.98,6.53-2.61c0.28-0.45,0.15-1.05-0.31-1.33c-0.44-0.28-1.04-0.15-1.33,0.31
			c-0.01,0.03-2,3.09-3.91,1.97c-1.22-0.72-2.33-2.57-2.02-4.18c0.36-1.87,2.53-2.59,4.29-2.85c2.2-0.35,3.92,0.22,5.1,1.65
			c1.83,2.23,1.86,5.99,1.19,7.84c-0.16,0.43-0.38,0.95-0.63,1.54c-1.34,3.19-3.58,8.53-1.66,12.39c0.54,1.09,1.45,1.91,2.55,2.6
			c-3.44-0.11-5.88-1.19-7.16-3.27c-1.6-2.59-1.13-6.13-0.28-7.82l1.12-2.25l-2.34,0.92c-1.58,0.62-3.13,0.93-4.62,0.93
			c-3.58,0-5.7-1.81-5.71-1.82l-0.57-0.5l-0.62,0.43c-1.56,1.07-4.51,2.79-5.79,2.89c-8.57,0.85-10.48-1.68-13.46-5.78
			c-0.5-0.68-1.01-1.38-1.58-2.11l-0.49-0.62l-0.71,0.36c-3.1,1.59-5.87,2.39-8.24,2.39c-4.07,0-6.22-2.33-7.79-4.04
			c-0.26-0.29-0.5-0.55-0.73-0.78l-0.19-0.19l-0.25-0.07c-4.01-1.02-6.65-2.85-7.89-5.41c-1.78-3.73-0.19-8.06,0.58-9.75l0.22-0.47
			l-0.27-0.44c-3.74-6.12-1.65-10.62,0.88-14.21c2.56-3.63,6.03-5.71,10.31-6.17l0.47-0.05l0.25-0.4c0.93-1.52,3.09-2.69,6.76-3.7
			l0.41-0.23c2.34-2.21,6.03-3.23,9.58-3.76c-0.25,0.32-0.35,0.74-0.12,1.1c0.33,0.5,0.58,1.68,0.04,2.59
			c-0.7,1.22-2.42,1.37-3.75,1.3c-2.14-0.12-3.65,0.3-4.7,1.3c-1.58,1.5-1.56,3.9-1.54,5.83v0.46c0,0.79-0.98,1.33-1.89,1.57
			c-1.68,0.44-3.93,0.12-4.64-1.16c-0.92-1.66-2.2-2.57-3.6-2.57h-0.03c-1.26,0.01-3.17,0.78-5.09,4.38c-0.7,1.3-0.8,2.49-0.3,3.52
			c1.12,2.3,4.85,2.96,7.84,3.5c0.79,0.14,1.5,0.27,2.04,0.41c0.9,0.24,1.18,1.43,1.25,1.78c0.21,1.15-0.11,2.18-0.53,2.48
			c-0.25,0.18-0.63,0.13-1.14-0.16c-1.91-1.07-4.35-1.08-6.7-0.04c-2.51,1.13-4.36,3.2-4.85,5.41c-0.44,2.03,0.34,3.89,2.04,4.85
			c1.99,1.11,4.51,0.66,6.43-1.16c0.77-0.73,1.25-0.54,1.4-0.48c0.74,0.3,1.42,1.49,1.48,2.61c0.01,0.29,0.01,0.98-0.41,1.21
			c-1.6,0.85-2.56,2.89-2.28,4.84c0.3,2.1,1.94,3.65,4.36,4.15c2.16,0.46,3.46-0.36,4.18-1.1c1.88-1.96,1.81-5.72,1.31-7.76
			c-0.19-0.76-0.05-1.42,0.42-1.95c0.72-0.84,2.09-1.25,3.75-1.1c6.59-0.1,7.55-2.55,7.54-4.01c-0.02-2.17-2.28-4.29-4-4.29
			c-3.57,0.06-4.77-1.14-6.84-4.33c-0.65-0.91-1.25-2.21-0.48-3.28c0.79-1.09,2.79-1.64,4.27-1.2c0.95,0.29,1.46,0.9,1.5,1.81
			c0.08,2.26,0.64,3.76,1.7,4.58c1.45,1.11,3.38,0.69,5.32,0.25c1.3-0.28,2.22-1.2,2.54-2.51c0.56-2.33-0.82-5.35-3.44-7.51
			c-1.12-0.93-1.65-2.07-1.59-3.4c0.1-2.31,1.95-4.91,4.95-6.98c1.4-0.97,2.6-1.06,3.66-0.27c1.35,1.02,1.87,2.95,1.78,3.53
			c-0.92,0.8-1.65,2.81-1.28,4.64c0.23,1.13,1.08,3.13,4.21,3.83c3.39,0.82,5.55,0.5,6.91-0.2c-0.85,1.45-1.15,3.03-0.84,4.62
			c0.48,2.55,2.44,4.95,5.81,7.13c1.79,1.16,1.72,2.9,1.52,3.83c-0.45,2.07-2.21,3.9-4.02,4.17c-1.59,0.25-3.12-0.77-4.32-2.94
			c-0.64-1.11-0.35-2.57,0-4.25c0.25-1.23,0.51-2.51,0.44-3.83c-0.11-2.15-1.55-4.02-3.78-4.89c-2.14-0.85-4.39-0.48-5.86,0.94
			c-1.52,1.48-2.83,4.64-0.47,11.29c0.08,1.32-0.4,2.26-1.48,2.87c-1.61,0.92-3.83,0.7-4.41,0.29c-1.49-0.8-3.1-0.72-4.52,0.22
			c-1.86,1.23-3.04,3.79-2.81,6.08c0.19,1.94,1.31,3.43,3.14,4.18c5.77,2.39,7.77,0,10.07-2.75l0.43-0.52
			c1.45-1.71,5.35-3.12,7.89-2.32c1.47,0.47,2.26,1.58,2.43,3.39c0.16,1.77-0.2,2.96-1.07,3.53c-1.24,0.82-3.28,0.33-3.72,0.13
			c-0.32-0.25-0.79-0.26-1.15-0.02c-0.44,0.31-0.54,0.91-0.23,1.35c0.36,0.5,1.77,0.93,3.25,0.93c0.7,0,1.41-0.09,2.03-0.32
			c1.47-0.54,3.16-1.99,2.82-5.77c-0.23-2.56-1.57-4.37-3.77-5.06c-3.4-1.06-8.04,0.65-9.95,2.91l-0.44,0.52
			c-2.25,2.7-3.39,4.03-7.85,2.21c-1.46-0.6-1.87-1.74-1.95-2.59c-0.16-1.59,0.69-3.44,1.96-4.28c0.81-0.54,1.67-0.58,2.42-0.19
			c1.22,0.89,4.28,0.96,6.39-0.25c1.76-1,2.63-2.73,2.44-4.85c0-0.08-0.02-0.16-0.05-0.24c-1.6-4.44-1.61-7.86-0.05-9.38
			c1.1-1.06,2.68-0.96,3.8-0.53c1.18,0.46,2.47,1.55,2.56,3.19c0.05,1.08-0.18,2.23-0.4,3.34c-0.39,1.9-0.79,3.87,0.22,5.6
			c2.16,3.88,4.88,4.09,6.29,3.89c2.59-0.39,5.01-2.82,5.63-5.68c0.53-2.42-0.34-4.55-2.36-5.86c-2.87-1.86-4.59-3.88-4.97-5.87
			c-0.31-1.6,0.32-2.9,0.89-3.71c0.61-0.85,2.3-1.54,3.8-1.18c1.32,0.33,2.15,1.47,2.39,3.28c0.41,3.1,1.84,4.64,2.97,5.38
			c0.83,0.54,1.78,0.76,2.77,0.81c-0.25,0.41-0.46,0.84-0.58,1.28c-0.42,1.51-0.23,3.72,3.04,5.65c2.22,1.31,4.46,1.28,6.31-0.11
			c2.84-2.12,4.16-6.91,3.45-9.78l-0.17-0.66c-0.87-3.4-1.31-5.11,2.79-7.66c1.35-0.83,2.51-0.5,3.24-0.08
			c1.39,0.8,2.39,2.56,2.33,4.09c-0.04,0.98-0.5,1.7-1.25,2.08c-1.42,0.47-3.28,2.9-3.53,5.33c-0.22,2.02,0.67,3.73,2.51,4.82
			c0.07,0.04,0.15,0.08,0.22,0.1c4.53,1.29,7.32,3.28,7.64,5.44c0.22,1.5-0.78,2.73-1.79,3.38c-1.07,0.69-2.69,1.11-4.09,0.21
			c-0.91-0.59-1.71-1.45-2.48-2.28c-1.31-1.42-2.68-2.89-4.66-3.09c-4.46-0.52-6.18,1.55-6.84,2.83c-1.2,2.33-0.63,5.72,1.32,7.88
			c1.67,1.84,3.89,2.37,6.14,1.51c3.18-1.25,5.82-1.47,7.66-0.61c1.48,0.69,2.17,1.95,2.48,2.88c0.34,1-0.1,2.79-1.27,3.78
			c-1.04,0.88-2.44,0.88-4.05,0.02c-2.75-1.48-4.85-1.21-6.11-0.73c-1.55,0.59-2.75,1.85-3.36,3.55c-0.61,1.68-0.52,3.34,0.26,4.81
			c0.74,1.39,2.48,3.26,6.62,4.29c1.13,0.28,2.14,0.4,3.05,0.4c2.35,0,3.94-0.77,4.97-1.51C96.83,126.91,95.73,133.51,95.73,133.54"
			/>
		<path class="st5" d="M320.52,71.43c-11.48-19.74-31.23-19.64-40.97-14.94c-4.88,2.35-8.37,5.87-8.88,8.99
			c-0.22,1.29,0.11,2.47,1.06,3.43l0.45,0.34c1.91,1.49,4.12,2.6,8.13-1.37c2.74-2.72,9.24-5.92,15.08-4.45
			c5.81,1.43,7.49,2.35,11.99,6.51c4.62,4.28,8.97,11.98,7.94,17.84c-0.58,3.3-2.11,5.8-4.32,7.02c-1.66,0.92-3.53,1.02-5.14,0.24
			c-1.46-0.71-2.32-1.52-2.63-2.48c-0.32-0.99-0.08-2.26,0.81-4.11c1.59-3.27,4.55-9.35-0.42-14.67c-3.47-3.72-9.02-8.11-16.94-3.22
			c-4.59,2.83-5.69,5.44-5.81,7.13c-0.1,1.39,0.42,2.67,1.42,3.52c1.64,1.37,4.19,0.97,7.81-1.24c3.98-2.44,6.47,0.89,6.92,1.59
			c1,1.51-0.52,5.91-1.51,6.67c-0.93,0.7-2.4,0.27-3.2-0.57c-0.55-0.58-1.02-1.56-0.14-2.92c0.32-0.49,0.21-1.16-0.26-1.5
			c-0.44-0.32-1.09-0.22-1.41,0.27c-1.26,1.93-1.12,4.11,0.37,5.69c1.41,1.49,3.96,2.18,5.81,0.8c1.71-1.3,3.75-7.02,2.01-9.67
			c-1.75-2.66-5.32-4.82-9.59-2.22c-3.65,2.24-5.04,1.84-5.55,1.43c-0.22-0.19-0.72-0.72-0.66-1.67c0.07-0.96,0.78-2.95,4.8-5.43
			c5.19-3.19,9.66-2.31,14.49,2.87c3.93,4.2,1.6,8.98-0.04,12.35c-1.07,2.2-1.34,4.04-0.83,5.61c0.5,1.55,1.72,2.77,3.71,3.73
			c2.16,1.06,4.68,0.95,6.92-0.28c2.77-1.53,4.68-4.57,5.38-8.54c1.32-7.51-4.42-15.99-8.6-19.86c-4.78-4.42-6.71-5.47-12.87-6.99
			c-6.95-1.72-14.06,2.14-16.92,4.98c-3.11,3.08-4.19,2.26-5.56,1.21l-0.36-0.26c-0.33-0.34-0.44-0.79-0.34-1.39
			c0.32-1.93,2.87-5.07,7.72-7.4c9.11-4.38,27.61-4.46,38.41,14.12c3.69,6.35,4.5,12.44,2.35,17.63c-2.26,5.45-7.8,9.65-14.44,10.95
			c-6.35,1.23-20.6-9.92-42.41-33.21c-1.25-1.34-2.13-2.27-2.51-2.64c-3.03-2.9-17.11-11.16-30.61,1.32
			c-6.89,6.36-10.83,13.63-11.09,20.45c-0.15,3.91,0.93,7.41,2.97,9.62c0.36,0.39,37.55,39.84,43.75,42.61
			c4.07,1.82,7.2,2.29,9.36,2.29c2.32,0,3.53-0.54,3.63-0.59c0.21-0.1,5.1-2.49,6.41-5.89c0.13-0.34,0.53-1.37-0.07-2.18
			c-0.69-0.94-1.97-0.73-3.75-0.43c-1.62,0.27-3.64,0.6-5.55,0.19c-2.11-0.46-10.32-6.7-37.48-33.84l-1.72-1.71
			c-7.11-7.05-6.18-14.14-2.95-18.43c6.35-8.43,12.54-9.97,18.92-4.72c3.75,3.09,13.81,12.47,22.68,20.76
			c8.53,7.95,15.9,14.82,17.45,15.95c2.69,1.95,5.33,3.29,8.49,3.09c-1.74,1.81-4.67,3.97-8.08,3.05
			c-5.93-1.62-9.45-4.22-19.84-14.65c-10.21-10.26-22.52-21.43-24.85-22.55c-4.16-2.02-6.33-0.16-7.06,0.75
			c-1.48,1.81-1.58,4.76-0.23,7.01c2.35,3.92,24.98,23.89,28.17,26.32c0.6,0.46,1.34,1.09,2.19,1.81c3.81,3.21,9.75,8.21,15.93,9.51
			c-3.74,1.86-6.47,2.35-10.16,0.17c-5.37-3.19-38.81-34.84-40.2-38.05c-0.25-0.54-0.85-0.78-1.35-0.53
			c-0.51,0.26-0.73,0.89-0.5,1.44c1.77,4.06,36.3,36.19,41.06,39.02c5.56,3.3,9.44,1.43,15.31-1.89c0.42-0.24,0.62-0.76,0.5-1.25
			c-0.13-0.49-0.58-0.8-1.04-0.78c-6.67,0.39-13.94-5.68-18.29-9.34c-0.89-0.75-1.65-1.39-2.27-1.86
			c-4.02-3.07-25.68-22.48-27.64-25.73c-0.88-1.46-0.85-3.33,0.04-4.44c0.93-1.14,2.64-1.2,4.69-0.21
			c1.9,0.93,13.72,11.55,24.3,22.17c10.09,10.13,14.03,13.35,20.73,15.17c6.92,1.91,11.77-5.7,11.96-6.04
			c0.24-0.37,0.23-0.85-0.01-1.22c-0.24-0.37-0.67-0.52-1.07-0.43c-3.93,1.04-6.6-0.12-9.65-2.33c-1.46-1.05-9.13-8.21-17.25-15.79
			c-8.9-8.3-18.99-17.72-22.79-20.84c-5.04-4.16-12.91-6.66-21.74,5.07c-3.81,5.04-4.98,13.31,3.14,21.36l1.72,1.71
			c22.7,22.68,34.93,33.61,38.46,34.38c2.26,0.49,4.59,0.1,6.28-0.17c0.5-0.09,1.14-0.19,1.58-0.22c-0.92,2.12-4.13,4.05-5.3,4.62
			c-0.04,0.02-3.86,1.64-11.39-1.72c-5.06-2.25-38.18-36.8-43.09-42.13c-1.62-1.76-2.52-4.76-2.4-8.02
			c0.14-3.6,1.67-10.85,10.4-18.91c12.25-11.32,25.34-3.81,27.93-1.34c0.36,0.35,1.21,1.25,2.42,2.55
			c14.43,15.41,34.66,35.69,44.21,33.81c7.29-1.43,13.39-6.11,15.92-12.2C324.69,86.98,325.64,80.25,320.52,71.43"/>
		<path class="st5" d="M418.62,71.89c-6.24-13.05-15.54-17.69-21.6-17.69c-1.46,0-2.78,0.28-3.82,0.81
			c-4.53,2.31-7.25,9.85-8.81,24.43c-0.13,1.31-0.21,2.49-0.31,3.72c-0.91,0.59-1.84,1.18-2.71,1.76c-0.28,0.19-0.55,0.35-0.83,0.54
			c-0.14-1.92-0.3-3.92-0.5-6.04c-1.56-14.57-4.28-22.1-8.81-24.42c-1.04-0.53-2.35-0.81-3.82-0.81c-4.95,0-12.03,3.18-17.87,11.41
			c-0.06,0.01-0.12,0.01-0.18,0.02c-0.54,0.09-0.89,0.56-0.8,1.05c0.01,0.07,0.09,0.1,0.12,0.16c-1,1.54-1.97,3.19-2.87,5.06
			c-3.65,7.64-8.54,19.84-11.81,32.21c-0.06,0.12-0.09,0.21-0.09,0.34c-2.42,9.23-3.94,18.53-3.23,26.11
			c0.69,6.07,2.16,9.98,7.35,10.7c0.16,0.02,0.35,0.04,0.56,0.04c2.25,0,7.27-1.62,12.81-3.83c0.07,0.01,0.12,0.08,0.2,0.08
			c0.23,0,0.47-0.08,0.66-0.23c0.11-0.09,0.21-0.22,0.32-0.32c6.65-2.7,13.8-6.11,17.66-8.51c0.34-0.03,0.59-0.22,0.74-0.49
			c0.69-0.46,1.27-0.88,1.63-1.23l0.36-0.35c3.65-3.51,9.55-9.26,7.72-38.8c0.62-0.41,1.23-0.79,1.86-1.22
			c0.43-0.29,0.91-0.58,1.35-0.88c-2.25,31.41,3.86,37.3,7.6,40.89l0.36,0.35c3.83,3.71,28.22,14.54,34.01,14.54
			c0.21,0,0.39-0.01,0.56-0.04c5.2-0.72,6.66-4.63,7.36-10.72C435.43,112.73,425.03,85.29,418.62,71.89 M347.6,72.61
			c0.95-1.98,2-3.7,3.1-5.31c5.65-0.78,10.02-0.26,12.87,1.64c2.54,1.69,3.25,4.02,3.44,5.26c0.4,2.57-0.16,5.03-1.49,6.56
			c-1.06,1.23-2.63,1.94-4.59,2.1h-0.06c-3.8,0-6.34-0.84-7.35-2.42c-1.18-1.85-0.15-4.36,0.34-5.17c0.74-1.2,1.96-1.91,3.29-1.91
			h0.08c1.24,0.03,2.32,0.65,2.88,1.68c0.34,0.63,0.43,1.15,0.25,1.51c-0.25,0.53-1.02,0.74-1.02,0.74c-0.52,0.13-0.83,0.62-0.7,1.1
			c0.14,0.49,0.68,0.78,1.19,0.65c0.17-0.04,1.68-0.43,2.32-1.72c0.44-0.89,0.35-1.93-0.28-3.08c-0.87-1.6-2.63-2.63-4.59-2.67
			h-0.13c-2.05,0-3.92,1.05-5.01,2.83c-0.87,1.42-1.91,4.48-0.32,6.97c1.41,2.19,4.45,3.31,9.12,3.31h0.08
			c2.6-0.22,4.64-1.15,6.05-2.78c2.39-2.76,2.12-6.48,1.89-7.94c-0.24-1.52-1.1-4.39-4.22-6.47c-2.98-1.98-7.27-2.64-12.66-2.13
			c4.98-6.39,10.88-9.34,15.34-9.34c1.13,0,2.12,0.2,2.86,0.58c3.85,1.97,6.33,9.29,7.81,23.01c0.24,2.52,0.42,4.86,0.57,7.1
			c-1.33,0.85-2.66,1.64-3.97,2.25c-6.97,3.2-24.46,5.86-35.05,3.25C342.02,85.31,344.76,78.56,347.6,72.61 M338.18,123.98
			c0.96,2.1,3.06,3.73,5.61,4.37c1.92,0.48,4.03-0.06,5.6-1.46c1.72-1.52,2.48-3.67,1.97-5.61c-0.83-3.17-4.33-3.64-6.1-3.45
			c-0.54,0.05-0.92,0.5-0.86,1c0.06,0.49,0.61,0.85,1.09,0.79c0.14-0.02,3.33-0.32,3.95,2.08c0.34,1.3-0.22,2.83-1.42,3.89
			c-1.09,0.97-2.47,1.34-3.72,1.02c-1.97-0.49-3.58-1.73-4.31-3.32c-0.85-1.86-0.49-4.19,1.03-6.7c0.86-1.28,2.9-2.21,5.21-2.38
			c3.19-0.18,6.36,1.01,8.62,3.41c4.71,5.02,0.6,14.01-3.43,17.82c-5.61,2.28-10.76,4.02-12.85,4.02c-0.1,0-0.18,0-0.26-0.01
			c-3.54-0.49-4.97-2.79-5.68-9.08c-0.66-7,0.71-16.02,3.14-25.42c3.75-2.37,9.59-4.59,16.81-2.32
			c12.04,3.78,16.97,15.12,16.57,24.31c-2.99,1.86-8.37,4.51-13.88,6.89c3.58-5.15,5.44-12.72,1.06-17.39
			c-2.66-2.84-6.41-4.33-10.26-4.03c-2.95,0.21-5.53,1.45-6.75,3.26C337,119.51,337.42,122.31,338.18,123.98 M371.53,125.14
			l-0.37,0.36c-0.01,0.01-0.03,0.03-0.04,0.04c-0.14-9.56-5.53-20.74-17.89-24.62c-6.94-2.18-12.72-0.61-16.83,1.55
			c0.79-2.84,1.68-5.7,2.64-8.55c11.38,2.85,29.34-0.06,36.55-3.36c1.08-0.49,2.14-1.1,3.2-1.75
			C380.35,116.56,374.92,121.88,371.53,125.14 M386.35,79.6c1.47-13.73,3.95-21.05,7.81-23.02c0.74-0.38,1.73-0.58,2.86-0.58
			c5.9,0,14.32,5.13,19.8,16.61c2.16,4.51,4.27,9.48,6.21,14.63c-3.69-4.76-11.13-10.05-20.7-10.15c-0.11-0.01-0.22-0.01-0.33-0.01
			c-6.5,0-11.5,2.19-15.85,4.78C386.22,81.1,386.27,80.4,386.35,79.6 M431.8,130.35c-0.72,6.31-2.15,8.61-5.68,9.1
			c-0.08,0.01-0.17,0.01-0.27,0.01c-5.2,0-29.18-10.67-32.58-13.97l-0.37-0.36c-3.57-3.43-9.41-9.14-6.93-41
			c4.41-2.77,9.45-5.25,16.05-5.25h0.3c12.18,0.14,20.41,9.4,21.24,13.33c1.04,4.94,0.25,12.19-5.09,17.73
			c-5.63,5.84-14.86,4.4-21.06,0.57c-2.86-1.78-3.67-4.51-3.84-6.49c-0.31-3.72,1.31-7.9,3.96-10.18c2.12-1.81,4.63-1.98,6.38-1.79
			c2.99,0.3,5.91,1.85,7.45,3.94c1.32,1.8,1.43,4.28,0.28,6.34c-1.09,1.95-3.12,3.09-5.59,3.15h-0.18c-3.04,0-4.12-1.62-4.5-2.59
			c-0.63-1.65-0.1-3.6,1.23-4.52c0.79-0.55,1.45-0.78,2.07-0.65c0.84,0.18,1.3,1.02,1.31,1.03c0.24,0.44,0.84,0.63,1.31,0.41
			c0.49-0.22,0.7-0.75,0.47-1.2c-0.09-0.17-0.89-1.62-2.62-2c-1.18-0.26-2.43,0.06-3.72,0.96c-2.02,1.41-2.82,4.16-1.9,6.56
			c0.91,2.39,3.28,3.81,6.37,3.81c0.07,0,0.15,0,0.22,0c3.2-0.07,5.86-1.58,7.29-4.13c1.47-2.64,1.32-5.85-0.4-8.18
			c-1.85-2.51-5.33-4.36-8.87-4.72c-3.05-0.3-5.86,0.5-7.94,2.28c-3.07,2.62-4.94,7.41-4.58,11.64c0.29,3.41,1.92,6.13,4.7,7.85
			c3.55,2.19,8.01,3.66,12.38,3.66c4.11,0,8.15-1.3,11.26-4.54c4.74-4.92,6.1-11.02,5.86-16.03
			C429.98,107.9,432.68,120.94,431.8,130.35"/>
		<path class="st5" d="M206.12,77.29c-0.59-0.43-0.89-0.91-1.07-1.69c-1.47-6.19-4.83-10.89-9.97-13.93
			c-2.61-1.55-5.5-2.37-8.34-2.37c-5.61,0-10.59,3.1-13.32,8.29c-3.66,6.99-2.64,16.2,2.56,22.92l2.3,2.92
			c-0.49,0.22-0.92,0.39-1.26,0.51c-0.3-0.04-0.49-0.08-0.51-0.08c-9.23-1.32-9.59-14.47-9.6-14.6c-0.01-0.43-0.35-0.78-0.75-0.78
			h-0.01c-0.41,0.01-0.74,0.37-0.74,0.81c0,0.14,0.4,13.97,10.2,15.99c0,0.01,0.02,0.02,0.02,0.04c0.02,0.05,0.03,0.09,0.05,0.14
			c-4.63,0.5-11.28,3.01-13.48,12.73c-2.22-9.83-8.98-12.27-13.5-12.72c0.03-0.05,0.05-0.09,0.07-0.15c0-0.01,0.01-0.02,0.02-0.04
			c9.8-2.05,10.2-15.85,10.2-15.99c0.01-0.44-0.32-0.8-0.74-0.81h-0.01c-0.41,0-0.74,0.35-0.75,0.78c0,0.13-0.35,13.28-9.63,14.61
			c-0.01,0-0.19,0.03-0.45,0.07c-0.35-0.13-0.77-0.3-1.28-0.53l2.3-2.9c5.19-6.71,6.21-15.92,2.55-22.91
			c-2.73-5.19-7.7-8.29-13.32-8.29c-2.85,0-5.73,0.82-8.34,2.37c-5.14,3.05-8.49,7.74-9.97,13.93c-0.19,0.79-0.49,1.26-1.07,1.69
			c-8.71,6.42-9.58,19.59-5.38,28.62c1.88,4.03,4.76,7.35,6.94,9.48c0.08,2.25,1.1,13.94,13.17,17.03c1.36,0.35,2.76,0.52,4.18,0.52
			c6.53,0,12.65-3.78,15.59-9.62c3.36-6.7,2.97-14.32-1-19.89c-1.79-2.5-4.16-4.84-6.09-6.65c0.16-0.07,0.3-0.14,0.45-0.21
			c1.06,0.18,1.74,0.37,1.8,0.39c6.17,0.45,13.53,4.01,13.53,18.42v19.98c0,0.44,0.34,0.8,0.75,0.8s0.75-0.36,0.75-0.8v-19.98
			c0-14.42,7.35-17.98,13.67-18.45c0.03,0,0.64-0.18,1.61-0.35c0.14,0.06,0.31,0.15,0.46,0.22c-1.93,1.8-4.29,4.13-6.06,6.62
			c-3.98,5.57-4.36,13.19-1,19.89c2.94,5.84,9.05,9.62,15.6,9.62c1.41,0,2.82-0.18,4.18-0.52c12.06-3.09,13.08-14.79,13.16-17.03
			c2.18-2.13,5.06-5.44,6.94-9.48C215.7,96.89,214.83,83.72,206.12,77.29 M144.72,92.7c-4.12-2.25-10.45-7.39-11.3-18
			c-0.04-0.44-0.41-0.74-0.82-0.73c-0.41,0.04-0.72,0.43-0.69,0.87c0.92,11.42,7.81,16.94,12.24,19.34v0.03
			c-4.16,0.1-10.75-0.64-13.99-5.76c-0.23-0.36-0.7-0.45-1.05-0.22c-0.34,0.24-0.43,0.74-0.2,1.11c2.16,3.41,5.53,5.09,8.85,5.87
			c-3.12,0.74-6.37,2.4-8.82,5.83c-0.25,0.35-0.18,0.85,0.15,1.12c0.32,0.26,0.8,0.2,1.06-0.16c3.63-5.09,9.27-5.87,13.22-5.69
			c-4.42,2.61-10.58,8.13-11.45,18.89c-0.04,0.44,0.27,0.82,0.69,0.86h0.06c0.39,0,0.72-0.31,0.75-0.73
			c0.83-10.4,6.77-15.49,10.89-17.81c0.04,0.08,0.04,0.18,0.1,0.24c1.92,1.78,4.36,4.15,6.15,6.65c3.62,5.07,3.94,12.04,0.87,18.18
			c-2.68,5.33-8.28,8.77-14.26,8.77c-1.3,0-2.59-0.16-3.83-0.48c-12.1-3.1-12.03-15.3-12.02-15.82c0-0.23-0.09-0.45-0.25-0.6
			c-2.1-2.03-5-5.29-6.84-9.24c-3.92-8.42-3.16-20.68,4.89-26.6c0.88-0.65,1.4-1.45,1.68-2.61c1.37-5.75,4.47-10.1,9.24-12.93
			c2.39-1.42,5.02-2.17,7.6-2.17c5.06,0,9.54,2.79,12,7.47c3.37,6.43,2.41,14.92-2.39,21.12L144.72,92.7z M210.14,105.21
			c-1.85,3.97-4.73,7.21-6.84,9.24c-0.16,0.15-0.25,0.38-0.24,0.6c0,0.13,0.11,12.71-12.02,15.82c-1.24,0.32-2.53,0.48-3.82,0.48
			c-5.99,0-11.59-3.44-14.27-8.77c-3.08-6.14-2.74-13.1,0.87-18.18c1.78-2.5,4.22-4.87,6.14-6.65c0.05-0.05,0.05-0.14,0.08-0.21
			c4.12,2.36,10.09,7.5,10.91,17.78c0.03,0.41,0.36,0.73,0.75,0.73h0.06c0.41-0.04,0.72-0.43,0.69-0.86
			c-0.87-10.77-7.04-16.29-11.46-18.89c3.92-0.19,9.58,0.57,13.24,5.69c0.25,0.36,0.73,0.42,1.05,0.16c0.33-0.27,0.4-0.76,0.15-1.12
			c-2.45-3.43-5.7-5.09-8.82-5.83c3.32-0.79,6.69-2.47,8.85-5.87c0.23-0.36,0.14-0.87-0.21-1.11s-0.81-0.15-1.05,0.22
			c-3.23,5.11-9.83,5.85-14,5.75v-0.02c4.44-2.4,11.33-7.91,12.25-19.34c0.03-0.44-0.27-0.82-0.69-0.87c-0.36,0-0.78,0.29-0.81,0.73
			c-0.86,10.72-7.16,15.82-11.28,18.04l-2.55-3.24c-4.81-6.21-5.77-14.7-2.4-21.13c2.45-4.68,6.93-7.47,11.99-7.47
			c2.59,0,5.22,0.75,7.6,2.17c4.77,2.83,7.89,7.18,9.25,12.93c0.27,1.16,0.79,1.96,1.67,2.61
			C213.31,84.54,214.07,96.79,210.14,105.21"/>
		<path class="st6" d="M206.12,77.29c-0.59-0.43-0.89-0.91-1.07-1.69c-1.47-6.19-4.83-10.89-9.97-13.93
			c-2.61-1.55-5.5-2.37-8.34-2.37c-5.61,0-10.59,3.1-13.32,8.29c-3.66,6.99-2.64,16.2,2.56,22.92l2.3,2.92
			c-0.49,0.22-0.92,0.39-1.26,0.51c-0.3-0.04-0.49-0.08-0.51-0.08c-9.23-1.32-9.59-14.47-9.6-14.6c-0.01-0.43-0.35-0.78-0.75-0.78
			h-0.01c-0.41,0.01-0.74,0.37-0.74,0.81c0,0.14,0.4,13.97,10.2,15.99c0,0.01,0.02,0.02,0.02,0.04c0.02,0.05,0.03,0.09,0.05,0.14
			c-4.63,0.5-11.28,3.01-13.48,12.73c-2.22-9.83-8.98-12.27-13.5-12.72c0.03-0.05,0.05-0.09,0.07-0.15c0-0.01,0.01-0.02,0.02-0.04
			c9.8-2.05,10.2-15.85,10.2-15.99c0.01-0.44-0.32-0.8-0.74-0.81h-0.01c-0.41,0-0.74,0.35-0.75,0.78c0,0.13-0.35,13.28-9.63,14.61
			c-0.01,0-0.19,0.03-0.45,0.07c-0.35-0.13-0.77-0.3-1.28-0.53l2.3-2.9c5.19-6.71,6.21-15.92,2.55-22.91
			c-2.73-5.19-7.7-8.29-13.32-8.29c-2.85,0-5.73,0.82-8.34,2.37c-5.14,3.05-8.49,7.74-9.97,13.93c-0.19,0.79-0.49,1.26-1.07,1.69
			c-8.71,6.42-9.58,19.59-5.38,28.62c1.88,4.03,4.76,7.35,6.94,9.48c0.08,2.25,1.1,13.94,13.17,17.03c1.36,0.35,2.76,0.52,4.18,0.52
			c6.53,0,12.65-3.78,15.59-9.62c3.36-6.7,2.97-14.32-1-19.89c-1.79-2.5-4.16-4.84-6.09-6.65c0.16-0.07,0.3-0.14,0.45-0.21
			c1.06,0.18,1.74,0.37,1.8,0.39c6.17,0.45,13.53,4.01,13.53,18.42v19.98c0,0.44,0.34,0.8,0.75,0.8s0.75-0.36,0.75-0.8v-19.98
			c0-14.42,7.35-17.98,13.67-18.45c0.03,0,0.64-0.18,1.61-0.35c0.14,0.06,0.31,0.15,0.46,0.22c-1.93,1.8-4.29,4.13-6.06,6.62
			c-3.98,5.57-4.36,13.19-1,19.89c2.94,5.84,9.05,9.62,15.6,9.62c1.41,0,2.82-0.18,4.18-0.52c12.06-3.09,13.08-14.79,13.16-17.03
			c2.18-2.13,5.06-5.44,6.94-9.48C215.7,96.89,214.83,83.72,206.12,77.29z M144.72,92.7c-4.12-2.25-10.45-7.39-11.3-18
			c-0.04-0.44-0.41-0.74-0.82-0.73c-0.41,0.04-0.72,0.43-0.69,0.87c0.92,11.42,7.81,16.94,12.24,19.34v0.03
			c-4.16,0.1-10.75-0.64-13.99-5.76c-0.23-0.36-0.7-0.45-1.05-0.22c-0.34,0.24-0.43,0.74-0.2,1.11c2.16,3.41,5.53,5.09,8.85,5.87
			c-3.12,0.74-6.37,2.4-8.82,5.83c-0.25,0.35-0.18,0.85,0.15,1.12c0.32,0.26,0.8,0.2,1.06-0.16c3.63-5.09,9.27-5.87,13.22-5.69
			c-4.42,2.61-10.58,8.13-11.45,18.89c-0.04,0.44,0.27,0.82,0.69,0.86h0.06c0.39,0,0.72-0.31,0.75-0.73
			c0.83-10.4,6.77-15.49,10.89-17.81c0.04,0.08,0.04,0.18,0.1,0.24c1.92,1.78,4.36,4.15,6.15,6.65c3.62,5.07,3.94,12.04,0.87,18.18
			c-2.68,5.33-8.28,8.77-14.26,8.77c-1.3,0-2.59-0.16-3.83-0.48c-12.1-3.1-12.03-15.3-12.02-15.82c0-0.23-0.09-0.45-0.25-0.6
			c-2.1-2.03-5-5.29-6.84-9.24c-3.92-8.42-3.16-20.68,4.89-26.6c0.88-0.65,1.4-1.45,1.68-2.61c1.37-5.75,4.47-10.1,9.24-12.93
			c2.39-1.42,5.02-2.17,7.6-2.17c5.06,0,9.54,2.79,12,7.47c3.37,6.43,2.41,14.92-2.39,21.12L144.72,92.7z M210.14,105.21
			c-1.85,3.97-4.73,7.21-6.84,9.24c-0.16,0.15-0.25,0.38-0.24,0.6c0,0.13,0.11,12.71-12.02,15.82c-1.24,0.32-2.53,0.48-3.82,0.48
			c-5.99,0-11.59-3.44-14.27-8.77c-3.08-6.14-2.74-13.1,0.87-18.18c1.78-2.5,4.22-4.87,6.14-6.65c0.05-0.05,0.05-0.14,0.08-0.21
			c4.12,2.36,10.09,7.5,10.91,17.78c0.03,0.41,0.36,0.73,0.75,0.73h0.06c0.41-0.04,0.72-0.43,0.69-0.86
			c-0.87-10.77-7.04-16.29-11.46-18.89c3.92-0.19,9.58,0.57,13.24,5.69c0.25,0.36,0.73,0.42,1.05,0.16c0.33-0.27,0.4-0.76,0.15-1.12
			c-2.45-3.43-5.7-5.09-8.82-5.83c3.32-0.79,6.69-2.47,8.85-5.87c0.23-0.36,0.14-0.87-0.21-1.11s-0.81-0.15-1.05,0.22
			c-3.23,5.11-9.83,5.85-14,5.75v-0.02c4.44-2.4,11.33-7.91,12.25-19.34c0.03-0.44-0.27-0.82-0.69-0.87c-0.36,0-0.78,0.29-0.81,0.73
			c-0.86,10.72-7.16,15.82-11.28,18.04l-2.55-3.24c-4.81-6.21-5.77-14.7-2.4-21.13c2.45-4.68,6.93-7.47,11.99-7.47
			c2.59,0,5.22,0.75,7.6,2.17c4.77,2.83,7.89,7.18,9.25,12.93c0.27,1.16,0.79,1.96,1.67,2.61
			C213.31,84.54,214.07,96.79,210.14,105.21z"/>
	</g>
</g>
</svg>
